<svg xmlns="http://www.w3.org/2000/svg" xmlns:xlink="http://www.w3.org/1999/xlink" zoomAndPan="magnify" preserveAspectRatio="xMidYMid meet" version="1.0" viewBox="329.91 14.91 780 780"><defs><clipPath id="2a025c082e"><path d="M 329.914062 14.914062 L 1109.914062 14.914062 L 1109.914062 794.914062 L 329.914062 794.914062 Z M 329.914062 14.914062 " clip-rule="nonzero"/></clipPath></defs><g clip-path="url(#2a025c082e)"><path fill="#423660" d="M 719.914062 14.914062 C 504.4375 14.914062 329.914062 189.4375 329.914062 404.914062 C 329.914062 620.386719 504.4375 794.914062 719.914062 794.914062 C 935.386719 794.914062 1109.914062 620.386719 1109.914062 404.914062 C 1109.914062 189.4375 935.386719 14.914062 719.914062 14.914062 Z M 758.914062 677.914062 L 680.914062 677.914062 L 680.914062 599.914062 L 758.914062 599.914062 Z M 839.449219 375.859375 L 804.542969 411.738281 C 776.464844 439.816406 758.914062 463.414062 758.914062 521.914062 L 680.914062 521.914062 L 680.914062 502.414062 C 680.914062 459.316406 698.464844 420.316406 726.542969 392.042969 L 775.097656 342.902344 C 789.136719 328.863281 797.914062 309.363281 797.914062 287.914062 C 797.914062 244.816406 763.007812 209.914062 719.914062 209.914062 C 676.816406 209.914062 641.914062 244.816406 641.914062 287.914062 L 563.914062 287.914062 C 563.914062 201.722656 633.722656 131.914062 719.914062 131.914062 C 806.101562 131.914062 875.914062 201.722656 875.914062 287.914062 C 875.914062 322.234375 862.066406 353.238281 839.449219 375.859375 Z M 839.449219 375.859375 " fill-opacity="1" fill-rule="nonzero"/></g></svg>