<svg xmlns="http://www.w3.org/2000/svg" xmlns:xlink="http://www.w3.org/1999/xlink" width="1080" zoomAndPan="magnify" viewBox="0 0 810 809.999993" height="1080" preserveAspectRatio="xMidYMid meet" version="1.0"><defs><clipPath id="14ceb26d98"><path d="M 71.378906 131.011719 L 738.878906 131.011719 L 738.878906 679.261719 L 71.378906 679.261719 Z M 71.378906 131.011719 " clip-rule="nonzero"/></clipPath></defs><g clip-path="url(#14ceb26d98)"><path fill="#ffffff" d="M 643.539062 202.515625 L 545.621094 202.515625 L 516.660156 166.519531 C 498.464844 143.960938 471.414062 131.011719 442.410156 131.011719 L 367.847656 131.011719 C 338.886719 131.011719 311.792969 143.960938 293.640625 166.519531 L 264.679688 202.515625 L 166.71875 202.515625 C 114.222656 202.515625 71.46875 245.273438 71.46875 297.773438 L 71.46875 584.003906 C 71.46875 636.550781 114.222656 679.261719 166.71875 679.261719 L 643.539062 679.261719 C 696.078125 679.261719 738.789062 636.503906 738.789062 584.003906 L 738.789062 297.773438 C 738.789062 245.273438 696.035156 202.515625 643.539062 202.515625 Z M 691.140625 584.003906 C 691.140625 610.253906 669.785156 631.609375 643.539062 631.609375 L 166.71875 631.609375 C 140.46875 631.609375 119.113281 610.253906 119.113281 584.003906 L 119.113281 297.773438 C 119.113281 271.523438 140.46875 250.167969 166.71875 250.167969 L 276.023438 250.167969 C 283.230469 250.167969 290.039062 246.875 294.574219 241.269531 L 330.746094 196.464844 C 339.820312 185.160156 353.34375 178.710938 367.847656 178.710938 L 442.453125 178.710938 C 456.957031 178.710938 470.480469 185.160156 479.554688 196.464844 L 515.679688 241.3125 C 520.21875 246.917969 527.023438 250.210938 534.230469 250.210938 L 643.539062 250.210938 C 669.785156 250.210938 691.140625 271.566406 691.140625 297.820312 Z M 405.128906 274.058594 C 313.128906 274.058594 238.296875 348.898438 238.296875 440.910156 C 238.296875 532.921875 313.128906 607.761719 405.128906 607.761719 C 497.128906 607.761719 571.957031 532.921875 571.957031 440.910156 C 571.957031 348.898438 497.128906 274.058594 405.128906 274.058594 Z M 405.128906 560.066406 C 339.417969 560.066406 285.945312 506.582031 285.945312 440.867188 C 285.945312 375.148438 339.417969 321.710938 405.128906 321.710938 C 470.835938 321.710938 524.3125 375.195312 524.3125 440.910156 C 524.3125 506.628906 470.835938 560.066406 405.128906 560.066406 Z M 405.128906 560.066406 " fill-opacity="1" fill-rule="nonzero"/></g></svg>