<svg xmlns="http://www.w3.org/2000/svg" xmlns:xlink="http://www.w3.org/1999/xlink" width="1080" zoomAndPan="magnify" viewBox="0 0 810 809.999993" height="1080" preserveAspectRatio="xMidYMid meet" version="1.0"><defs><clipPath id="c82932ffd9"><path d="M 22.621094 22.621094 L 787.621094 22.621094 L 787.621094 787.621094 L 22.621094 787.621094 Z M 22.621094 22.621094 " clip-rule="nonzero"/></clipPath></defs><g clip-path="url(#c82932ffd9)"><path fill="#fefefe" d="M 787.566406 405.105469 C 787.566406 616.335938 616.335938 787.566406 405.105469 787.566406 C 193.871094 787.566406 22.632812 616.335938 22.632812 405.105469 C 22.632812 193.871094 193.871094 22.632812 405.105469 22.632812 C 616.335938 22.632812 787.566406 193.871094 787.566406 405.105469 " fill-opacity="1" fill-rule="nonzero"/></g><path fill="#423660" d="M 345.441406 529.726562 L 280.484375 464.761719 C 276.40625 460.683594 276.40625 454.074219 280.484375 450 L 400.324219 330.160156 C 404.402344 326.082031 411.007812 326.082031 415.085938 330.160156 L 480.042969 395.125 C 484.121094 399.203125 484.121094 405.808594 480.042969 409.886719 L 360.210938 529.726562 C 356.132812 533.800781 349.519531 533.800781 345.441406 529.726562 " fill-opacity="1" fill-rule="nonzero"/><path fill="#423660" d="M 256.84375 536.582031 L 264.078125 475.636719 C 264.585938 471.390625 269.761719 469.59375 272.792969 472.621094 L 337.589844 537.417969 C 340.609375 540.4375 338.8125 545.625 334.566406 546.128906 L 273.621094 553.367188 C 263.917969 554.519531 255.691406 546.292969 256.84375 536.582031 " fill-opacity="1" fill-rule="nonzero"/><path fill="#423660" d="M 523.207031 287.003906 C 501.183594 264.988281 478.363281 252.121094 472.21875 258.265625 L 420.546875 309.933594 C 416.832031 313.652344 416.832031 319.671875 420.546875 323.390625 L 486.820312 389.660156 C 490.535156 393.371094 496.558594 393.371094 500.269531 389.660156 L 551.945312 337.992188 C 558.082031 331.847656 545.21875 309.019531 523.207031 287.003906 " fill-opacity="1" fill-rule="nonzero"/></svg>