<svg xmlns="http://www.w3.org/2000/svg" xmlns:xlink="http://www.w3.org/1999/xlink" zoomAndPan="magnify" preserveAspectRatio="xMidYMid meet" version="1.0" viewBox="332.85 17.85 774 774"><defs><clipPath id="79310eed0e"><path d="M 332.847656 17.847656 L 1106.847656 17.847656 L 1106.847656 791.847656 L 332.847656 791.847656 Z M 332.847656 17.847656 " clip-rule="nonzero"/></clipPath></defs><g clip-path="url(#79310eed0e)"><path fill="#423660" d="M 719.652344 17.847656 C 505.835938 17.847656 332.847656 191.03125 332.847656 404.847656 C 332.847656 618.664062 505.835938 791.847656 719.652344 791.847656 C 933.472656 791.847656 1106.847656 618.664062 1106.847656 404.847656 C 1106.847656 191.03125 933.472656 17.847656 719.652344 17.847656 Z M 987.652344 250.046875 L 873.484375 250.046875 C 860.910156 201.671875 843.300781 155.230469 820.082031 112.273438 C 891.289062 136.65625 950.5 186 987.652344 250.046875 Z M 719.847656 96.601562 C 752.160156 143.042969 777.316406 194.707031 793.765625 250.046875 L 645.929688 250.046875 C 662.378906 194.707031 687.53125 143.042969 719.847656 96.601562 Z M 420.308594 482.246094 C 413.921875 457.480469 410.246094 431.550781 410.246094 404.847656 C 410.246094 378.144531 413.921875 352.214844 420.308594 327.449219 L 550.921875 327.449219 C 547.824219 352.796875 545.695312 378.53125 545.695312 404.847656 C 545.695312 431.164062 547.824219 456.898438 551.117188 482.246094 Z M 451.851562 559.648438 L 566.015625 559.648438 C 578.59375 608.023438 596.199219 654.460938 619.421875 697.613281 C 548.210938 673.230469 489 623.695312 451.851562 559.648438 Z M 566.015625 250.046875 L 451.851562 250.046875 C 489 186 548.210938 136.460938 619.421875 112.082031 C 596.199219 155.230469 578.59375 201.671875 566.015625 250.046875 Z M 719.847656 713.09375 C 687.726562 666.652344 662.570312 614.988281 645.929688 559.648438 L 793.765625 559.648438 C 777.125 614.988281 751.96875 666.652344 719.847656 713.09375 Z M 810.40625 482.246094 L 629.289062 482.246094 C 625.613281 456.898438 623.097656 431.164062 623.097656 404.847656 C 623.097656 378.53125 625.613281 352.796875 629.289062 327.449219 L 810.40625 327.449219 C 814.082031 352.796875 816.597656 378.53125 816.597656 404.847656 C 816.597656 431.164062 814.082031 456.898438 810.40625 482.246094 Z M 820.273438 697.417969 C 843.492188 654.269531 861.101562 608.023438 873.679688 559.648438 L 987.84375 559.648438 C 950.5 623.695312 891.289062 673.039062 820.273438 697.417969 Z M 888.578125 482.246094 C 891.675781 456.898438 893.996094 431.164062 893.996094 404.847656 C 893.996094 378.53125 891.867188 352.796875 888.578125 327.449219 L 1019.191406 327.449219 C 1025.578125 352.214844 1029.445312 378.144531 1029.445312 404.847656 C 1029.445312 431.550781 1025.769531 457.480469 1019.191406 482.246094 Z M 888.578125 482.246094 " fill-opacity="1" fill-rule="nonzero"/></g></svg>