<svg xmlns="http://www.w3.org/2000/svg" xmlns:xlink="http://www.w3.org/1999/xlink" zoomAndPan="magnify" preserveAspectRatio="xMidYMid meet" version="1.0" viewBox="333.32 18.32 772.68 772.68"><defs><clipPath id="c4380350c1"><path d="M 333.835938 18.835938 L 1106 18.835938 L 1106 791 L 333.835938 791 Z M 333.835938 18.835938 " clip-rule="nonzero"/></clipPath></defs><g clip-path="url(#c4380350c1)"><path fill="#423660" d="M 992.082031 291.171875 L 992.082031 131.386719 L 832.292969 131.386719 L 719.234375 18.324219 L 606.171875 131.386719 L 446.386719 131.386719 L 446.386719 291.171875 L 333.324219 404.234375 L 446.386719 517.292969 L 446.386719 677.082031 L 606.171875 677.082031 L 719.234375 790.140625 L 832.292969 677.082031 L 992.082031 677.082031 L 992.082031 517.292969 L 1105.140625 404.234375 Z M 719.234375 608.867188 C 688.707031 608.867188 659.890625 602.046875 633.96875 590.109375 C 704.398438 557.710938 753.339844 486.769531 753.339844 404.234375 C 753.339844 321.695312 704.398438 250.757812 633.96875 218.355469 C 659.890625 206.417969 688.707031 199.597656 719.234375 199.597656 C 832.292969 199.597656 923.867188 291.171875 923.867188 404.234375 C 923.867188 517.292969 832.292969 608.867188 719.234375 608.867188 Z M 719.234375 608.867188 " fill-opacity="1" fill-rule="nonzero"/></g></svg>