<svg xmlns="http://www.w3.org/2000/svg" xmlns:xlink="http://www.w3.org/1999/xlink" width="1080" zoomAndPan="magnify" viewBox="0 0 810 809.999993" height="1080" preserveAspectRatio="xMidYMid meet" version="1.0"><defs><clipPath id="7e5577e1c6"><path d="M 83 16.652344 L 753 16.652344 L 753 793.652344 L 83 793.652344 Z M 83 16.652344 " clip-rule="nonzero"/></clipPath></defs><g clip-path="url(#7e5577e1c6)"><path fill="#423660" d="M 121.316406 656.296875 L 281.183594 656.296875 L 281.183594 656.796875 C 281.183594 732.242188 342.574219 793.652344 417.996094 793.652344 C 493.417969 793.652344 554.808594 732.242188 554.808594 656.796875 L 554.808594 656.296875 L 714.675781 656.296875 C 735.222656 656.296875 752.261719 639.503906 752.261719 618.703125 C 752.261719 597.898438 735.222656 581.105469 714.675781 581.105469 L 680.597656 581.105469 L 680.597656 335.972656 C 680.597656 204.132812 582.625 94.851562 455.582031 76.554688 L 455.582031 54.246094 C 455.582031 33.445312 438.792969 16.652344 417.996094 16.652344 C 397.199219 16.652344 380.410156 33.445312 380.410156 54.246094 L 380.410156 76.554688 C 253.371094 94.851562 155.398438 204.132812 155.398438 335.972656 L 155.398438 581.105469 L 121.316406 581.105469 C 100.773438 581.105469 83.730469 597.898438 83.730469 618.703125 C 83.730469 639.503906 100.773438 656.296875 121.316406 656.296875 Z M 356.355469 656.296875 L 479.636719 656.296875 L 479.636719 656.796875 C 479.636719 690.886719 451.824219 718.457031 417.996094 718.457031 C 384.171875 718.457031 356.355469 690.886719 356.355469 656.796875 Z M 356.355469 656.296875 " fill-opacity="1" fill-rule="nonzero"/></g></svg>