<svg xmlns="http://www.w3.org/2000/svg" xmlns:xlink="http://www.w3.org/1999/xlink" width="414" zoomAndPan="magnify" viewBox="0 0 310.5 671.999985" height="896" preserveAspectRatio="xMidYMid meet" version="1.0"><defs><g/><clipPath id="431704a552"><path d="M 0 0.539062 L 310 0.539062 L 310 671.457031 L 0 671.457031 Z M 0 0.539062 " clip-rule="nonzero"/></clipPath><clipPath id="99367e40a6"><path d="M 0 0.539062 L 310 0.539062 L 310 424 L 0 424 Z M 0 0.539062 " clip-rule="nonzero"/></clipPath><clipPath id="dd919b3d09"><path d="M -58.679688 -574.96875 L 564.378906 182.761719 L -0.445312 647.199219 L -623.503906 -110.535156 Z M -58.679688 -574.96875 " clip-rule="nonzero"/></clipPath><clipPath id="02c7c8c799"><path d="M -58.679688 -574.96875 L 564.378906 182.761719 L -0.445312 647.199219 L -623.503906 -110.535156 Z M -58.679688 -574.96875 " clip-rule="nonzero"/></clipPath><clipPath id="84a1a575df"><path d="M -62.632812 155.632812 C 26.613281 183.144531 -40.074219 381.390625 94.410156 419.929688 C 228.894531 458.472656 510.445312 185.078125 235.925781 -185.046875 C -3.820312 -508.25 -323.984375 -356.671875 -421.726562 -207.769531 C -497.789062 -91.921875 -468.402344 78.089844 -354.964844 168.203125 C -217.617188 277.363281 -110.292969 140.886719 -62.632812 155.632812 Z M -62.632812 155.632812 " clip-rule="nonzero"/></clipPath><linearGradient x1="58.369181" gradientTransform="matrix(3.113005, 3.785884, -3.785683, 3.112839, -49.089968, -533.211761)" y1="44.68118" x2="168.635522" gradientUnits="userSpaceOnUse" y2="154.947517" id="8577fb1976"><stop stop-opacity="1" stop-color="rgb(95.08667%, 65.32135%, 60.881042%)" offset="0"/><stop stop-opacity="1" stop-color="rgb(94.729614%, 65.093994%, 60.760498%)" offset="0.00390625"/><stop stop-opacity="1" stop-color="rgb(94.374084%, 64.866638%, 60.641479%)" offset="0.0078125"/><stop stop-opacity="1" stop-color="rgb(94.017029%, 64.639282%, 60.520935%)" offset="0.0117188"/><stop stop-opacity="1" stop-color="rgb(93.659973%, 64.411926%, 60.400391%)" offset="0.015625"/><stop stop-opacity="1" stop-color="rgb(93.302917%, 64.183044%, 60.279846%)" offset="0.0195313"/><stop stop-opacity="1" stop-color="rgb(92.945862%, 63.955688%, 60.160828%)" offset="0.0234375"/><stop stop-opacity="1" stop-color="rgb(92.588806%, 63.728333%, 60.040283%)" offset="0.0273438"/><stop stop-opacity="1" stop-color="rgb(92.23175%, 63.500977%, 59.919739%)" offset="0.03125"/><stop stop-opacity="1" stop-color="rgb(91.874695%, 63.273621%, 59.799194%)" offset="0.0351563"/><stop stop-opacity="1" stop-color="rgb(91.519165%, 63.046265%, 59.680176%)" offset="0.0390625"/><stop stop-opacity="1" stop-color="rgb(91.162109%, 62.818909%, 59.559631%)" offset="0.0429688"/><stop stop-opacity="1" stop-color="rgb(90.805054%, 62.591553%, 59.440613%)" offset="0.046875"/><stop stop-opacity="1" stop-color="rgb(90.447998%, 62.362671%, 59.320068%)" offset="0.0507813"/><stop stop-opacity="1" stop-color="rgb(90.090942%, 62.135315%, 59.199524%)" offset="0.0546875"/><stop stop-opacity="1" stop-color="rgb(89.733887%, 61.907959%, 59.078979%)" offset="0.0585938"/><stop stop-opacity="1" stop-color="rgb(89.378357%, 61.680603%, 58.959961%)" offset="0.0625"/><stop stop-opacity="1" stop-color="rgb(89.021301%, 61.453247%, 58.839417%)" offset="0.0664063"/><stop stop-opacity="1" stop-color="rgb(88.664246%, 61.225891%, 58.718872%)" offset="0.0703125"/><stop stop-opacity="1" stop-color="rgb(88.30719%, 60.998535%, 58.598328%)" offset="0.0742188"/><stop stop-opacity="1" stop-color="rgb(87.950134%, 60.771179%, 58.479309%)" offset="0.078125"/><stop stop-opacity="1" stop-color="rgb(87.593079%, 60.542297%, 58.358765%)" offset="0.0820313"/><stop stop-opacity="1" stop-color="rgb(87.236023%, 60.314941%, 58.239746%)" offset="0.0859375"/><stop stop-opacity="1" stop-color="rgb(86.878967%, 60.087585%, 58.119202%)" offset="0.0898438"/><stop stop-opacity="1" stop-color="rgb(86.523438%, 59.860229%, 57.998657%)" offset="0.09375"/><stop stop-opacity="1" stop-color="rgb(86.166382%, 59.632874%, 57.878113%)" offset="0.0976563"/><stop stop-opacity="1" stop-color="rgb(85.809326%, 59.405518%, 57.759094%)" offset="0.101563"/><stop stop-opacity="1" stop-color="rgb(85.452271%, 59.176636%, 57.63855%)" offset="0.105469"/><stop stop-opacity="1" stop-color="rgb(85.095215%, 58.94928%, 57.518005%)" offset="0.109375"/><stop stop-opacity="1" stop-color="rgb(84.738159%, 58.721924%, 57.397461%)" offset="0.113281"/><stop stop-opacity="1" stop-color="rgb(84.381104%, 58.494568%, 57.278442%)" offset="0.117188"/><stop stop-opacity="1" stop-color="rgb(84.024048%, 58.267212%, 57.157898%)" offset="0.121094"/><stop stop-opacity="1" stop-color="rgb(83.668518%, 58.039856%, 57.038879%)" offset="0.125"/><stop stop-opacity="1" stop-color="rgb(83.311462%, 57.8125%, 56.918335%)" offset="0.128906"/><stop stop-opacity="1" stop-color="rgb(82.954407%, 57.585144%, 56.797791%)" offset="0.132813"/><stop stop-opacity="1" stop-color="rgb(82.597351%, 57.356262%, 56.677246%)" offset="0.136719"/><stop stop-opacity="1" stop-color="rgb(82.240295%, 57.128906%, 56.558228%)" offset="0.140625"/><stop stop-opacity="1" stop-color="rgb(81.88324%, 56.90155%, 56.437683%)" offset="0.144531"/><stop stop-opacity="1" stop-color="rgb(81.526184%, 56.674194%, 56.318665%)" offset="0.148438"/><stop stop-opacity="1" stop-color="rgb(81.169128%, 56.446838%, 56.19812%)" offset="0.152344"/><stop stop-opacity="1" stop-color="rgb(80.813599%, 56.219482%, 56.077576%)" offset="0.15625"/><stop stop-opacity="1" stop-color="rgb(80.456543%, 55.990601%, 55.957031%)" offset="0.160156"/><stop stop-opacity="1" stop-color="rgb(80.099487%, 55.763245%, 55.838013%)" offset="0.164063"/><stop stop-opacity="1" stop-color="rgb(79.742432%, 55.535889%, 55.717468%)" offset="0.167969"/><stop stop-opacity="1" stop-color="rgb(79.385376%, 55.308533%, 55.596924%)" offset="0.171875"/><stop stop-opacity="1" stop-color="rgb(79.02832%, 55.081177%, 55.476379%)" offset="0.175781"/><stop stop-opacity="1" stop-color="rgb(78.672791%, 54.853821%, 55.357361%)" offset="0.179688"/><stop stop-opacity="1" stop-color="rgb(78.315735%, 54.626465%, 55.236816%)" offset="0.183594"/><stop stop-opacity="1" stop-color="rgb(77.958679%, 54.399109%, 55.117798%)" offset="0.1875"/><stop stop-opacity="1" stop-color="rgb(77.601624%, 54.170227%, 54.997253%)" offset="0.191406"/><stop stop-opacity="1" stop-color="rgb(77.244568%, 53.942871%, 54.876709%)" offset="0.195312"/><stop stop-opacity="1" stop-color="rgb(76.887512%, 53.715515%, 54.756165%)" offset="0.199219"/><stop stop-opacity="1" stop-color="rgb(76.530457%, 53.488159%, 54.637146%)" offset="0.203125"/><stop stop-opacity="1" stop-color="rgb(76.173401%, 53.260803%, 54.516602%)" offset="0.207031"/><stop stop-opacity="1" stop-color="rgb(75.817871%, 53.033447%, 54.396057%)" offset="0.210938"/><stop stop-opacity="1" stop-color="rgb(75.460815%, 52.804565%, 54.275513%)" offset="0.214844"/><stop stop-opacity="1" stop-color="rgb(75.10376%, 52.577209%, 54.156494%)" offset="0.21875"/><stop stop-opacity="1" stop-color="rgb(74.746704%, 52.349854%, 54.03595%)" offset="0.222656"/><stop stop-opacity="1" stop-color="rgb(74.389648%, 52.122498%, 53.916931%)" offset="0.226562"/><stop stop-opacity="1" stop-color="rgb(74.032593%, 51.895142%, 53.796387%)" offset="0.230469"/><stop stop-opacity="1" stop-color="rgb(73.675537%, 51.667786%, 53.675842%)" offset="0.234375"/><stop stop-opacity="1" stop-color="rgb(73.318481%, 51.44043%, 53.555298%)" offset="0.238281"/><stop stop-opacity="1" stop-color="rgb(72.962952%, 51.213074%, 53.436279%)" offset="0.242188"/><stop stop-opacity="1" stop-color="rgb(72.605896%, 50.984192%, 53.315735%)" offset="0.246094"/><stop stop-opacity="1" stop-color="rgb(72.24884%, 50.756836%, 53.19519%)" offset="0.25"/><stop stop-opacity="1" stop-color="rgb(71.891785%, 50.52948%, 53.074646%)" offset="0.253906"/><stop stop-opacity="1" stop-color="rgb(71.534729%, 50.302124%, 52.955627%)" offset="0.257812"/><stop stop-opacity="1" stop-color="rgb(71.177673%, 50.074768%, 52.835083%)" offset="0.261719"/><stop stop-opacity="1" stop-color="rgb(70.822144%, 49.847412%, 52.716064%)" offset="0.265625"/><stop stop-opacity="1" stop-color="rgb(70.465088%, 49.61853%, 52.59552%)" offset="0.269531"/><stop stop-opacity="1" stop-color="rgb(70.108032%, 49.391174%, 52.474976%)" offset="0.273438"/><stop stop-opacity="1" stop-color="rgb(69.750977%, 49.163818%, 52.354431%)" offset="0.277344"/><stop stop-opacity="1" stop-color="rgb(69.393921%, 48.936462%, 52.235413%)" offset="0.28125"/><stop stop-opacity="1" stop-color="rgb(69.036865%, 48.709106%, 52.114868%)" offset="0.285156"/><stop stop-opacity="1" stop-color="rgb(68.67981%, 48.48175%, 51.994324%)" offset="0.289062"/><stop stop-opacity="1" stop-color="rgb(68.322754%, 48.254395%, 51.873779%)" offset="0.292969"/><stop stop-opacity="1" stop-color="rgb(67.967224%, 48.027039%, 51.754761%)" offset="0.296875"/><stop stop-opacity="1" stop-color="rgb(67.610168%, 47.798157%, 51.634216%)" offset="0.300781"/><stop stop-opacity="1" stop-color="rgb(67.253113%, 47.570801%, 51.515198%)" offset="0.304688"/><stop stop-opacity="1" stop-color="rgb(66.896057%, 47.343445%, 51.394653%)" offset="0.308594"/><stop stop-opacity="1" stop-color="rgb(66.539001%, 47.116089%, 51.274109%)" offset="0.3125"/><stop stop-opacity="1" stop-color="rgb(66.181946%, 46.888733%, 51.153564%)" offset="0.316406"/><stop stop-opacity="1" stop-color="rgb(65.82489%, 46.661377%, 51.034546%)" offset="0.320312"/><stop stop-opacity="1" stop-color="rgb(65.467834%, 46.434021%, 50.914001%)" offset="0.324219"/><stop stop-opacity="1" stop-color="rgb(65.112305%, 46.206665%, 50.794983%)" offset="0.328125"/><stop stop-opacity="1" stop-color="rgb(64.755249%, 45.977783%, 50.674438%)" offset="0.332031"/><stop stop-opacity="1" stop-color="rgb(64.398193%, 45.750427%, 50.553894%)" offset="0.335938"/><stop stop-opacity="1" stop-color="rgb(64.041138%, 45.523071%, 50.43335%)" offset="0.339844"/><stop stop-opacity="1" stop-color="rgb(63.684082%, 45.295715%, 50.314331%)" offset="0.34375"/><stop stop-opacity="1" stop-color="rgb(63.327026%, 45.068359%, 50.193787%)" offset="0.347656"/><stop stop-opacity="1" stop-color="rgb(62.969971%, 44.841003%, 50.073242%)" offset="0.351562"/><stop stop-opacity="1" stop-color="rgb(62.612915%, 44.612122%, 49.952698%)" offset="0.355469"/><stop stop-opacity="1" stop-color="rgb(62.257385%, 44.384766%, 49.833679%)" offset="0.359375"/><stop stop-opacity="1" stop-color="rgb(61.90033%, 44.15741%, 49.713135%)" offset="0.363281"/><stop stop-opacity="1" stop-color="rgb(61.543274%, 43.930054%, 49.594116%)" offset="0.367188"/><stop stop-opacity="1" stop-color="rgb(61.186218%, 43.702698%, 49.473572%)" offset="0.371094"/><stop stop-opacity="1" stop-color="rgb(60.829163%, 43.475342%, 49.353027%)" offset="0.375"/><stop stop-opacity="1" stop-color="rgb(60.472107%, 43.247986%, 49.232483%)" offset="0.378906"/><stop stop-opacity="1" stop-color="rgb(60.116577%, 43.02063%, 49.113464%)" offset="0.382812"/><stop stop-opacity="1" stop-color="rgb(59.759521%, 42.791748%, 48.99292%)" offset="0.386719"/><stop stop-opacity="1" stop-color="rgb(59.402466%, 42.564392%, 48.872375%)" offset="0.390625"/><stop stop-opacity="1" stop-color="rgb(59.04541%, 42.337036%, 48.751831%)" offset="0.394531"/><stop stop-opacity="1" stop-color="rgb(58.688354%, 42.10968%, 48.632812%)" offset="0.398437"/><stop stop-opacity="1" stop-color="rgb(58.331299%, 41.882324%, 48.512268%)" offset="0.402344"/><stop stop-opacity="1" stop-color="rgb(57.974243%, 41.654968%, 48.39325%)" offset="0.40625"/><stop stop-opacity="1" stop-color="rgb(57.617188%, 41.426086%, 48.272705%)" offset="0.410156"/><stop stop-opacity="1" stop-color="rgb(57.261658%, 41.19873%, 48.152161%)" offset="0.414062"/><stop stop-opacity="1" stop-color="rgb(56.904602%, 40.971375%, 48.031616%)" offset="0.417969"/><stop stop-opacity="1" stop-color="rgb(56.547546%, 40.744019%, 47.912598%)" offset="0.421875"/><stop stop-opacity="1" stop-color="rgb(56.190491%, 40.516663%, 47.792053%)" offset="0.425781"/><stop stop-opacity="1" stop-color="rgb(55.833435%, 40.289307%, 47.671509%)" offset="0.429687"/><stop stop-opacity="1" stop-color="rgb(55.476379%, 40.061951%, 47.550964%)" offset="0.433594"/><stop stop-opacity="1" stop-color="rgb(55.119324%, 39.834595%, 47.431946%)" offset="0.4375"/><stop stop-opacity="1" stop-color="rgb(54.762268%, 39.605713%, 47.311401%)" offset="0.441406"/><stop stop-opacity="1" stop-color="rgb(54.406738%, 39.378357%, 47.192383%)" offset="0.445312"/><stop stop-opacity="1" stop-color="rgb(54.049683%, 39.151001%, 47.071838%)" offset="0.449219"/><stop stop-opacity="1" stop-color="rgb(53.692627%, 38.923645%, 46.951294%)" offset="0.453125"/><stop stop-opacity="1" stop-color="rgb(53.335571%, 38.696289%, 46.83075%)" offset="0.457031"/><stop stop-opacity="1" stop-color="rgb(52.978516%, 38.468933%, 46.711731%)" offset="0.460937"/><stop stop-opacity="1" stop-color="rgb(52.62146%, 38.240051%, 46.591187%)" offset="0.464844"/><stop stop-opacity="1" stop-color="rgb(52.26593%, 38.012695%, 46.470642%)" offset="0.46875"/><stop stop-opacity="1" stop-color="rgb(51.908875%, 37.785339%, 46.350098%)" offset="0.472656"/><stop stop-opacity="1" stop-color="rgb(51.551819%, 37.557983%, 46.231079%)" offset="0.476562"/><stop stop-opacity="1" stop-color="rgb(51.194763%, 37.330627%, 46.110535%)" offset="0.480469"/><stop stop-opacity="1" stop-color="rgb(50.837708%, 37.103271%, 45.991516%)" offset="0.484375"/><stop stop-opacity="1" stop-color="rgb(50.480652%, 36.875916%, 45.870972%)" offset="0.488281"/><stop stop-opacity="1" stop-color="rgb(50.123596%, 36.64856%, 45.750427%)" offset="0.492188"/><stop stop-opacity="1" stop-color="rgb(49.766541%, 36.419678%, 45.629883%)" offset="0.496094"/><stop stop-opacity="1" stop-color="rgb(49.411011%, 36.192322%, 45.510864%)" offset="0.5"/><stop stop-opacity="1" stop-color="rgb(49.053955%, 35.964966%, 45.39032%)" offset="0.503906"/><stop stop-opacity="1" stop-color="rgb(48.696899%, 35.73761%, 45.271301%)" offset="0.507812"/><stop stop-opacity="1" stop-color="rgb(48.339844%, 35.510254%, 45.150757%)" offset="0.511719"/><stop stop-opacity="1" stop-color="rgb(47.982788%, 35.282898%, 45.030212%)" offset="0.515625"/><stop stop-opacity="1" stop-color="rgb(47.625732%, 35.054016%, 44.909668%)" offset="0.519531"/><stop stop-opacity="1" stop-color="rgb(47.268677%, 34.82666%, 44.790649%)" offset="0.523438"/><stop stop-opacity="1" stop-color="rgb(46.911621%, 34.599304%, 44.670105%)" offset="0.527344"/><stop stop-opacity="1" stop-color="rgb(46.556091%, 34.371948%, 44.549561%)" offset="0.53125"/><stop stop-opacity="1" stop-color="rgb(46.199036%, 34.144592%, 44.429016%)" offset="0.535156"/><stop stop-opacity="1" stop-color="rgb(45.84198%, 33.917236%, 44.309998%)" offset="0.539063"/><stop stop-opacity="1" stop-color="rgb(45.484924%, 33.68988%, 44.189453%)" offset="0.542969"/><stop stop-opacity="1" stop-color="rgb(45.127869%, 33.462524%, 44.070435%)" offset="0.546875"/><stop stop-opacity="1" stop-color="rgb(44.770813%, 33.233643%, 43.94989%)" offset="0.550781"/><stop stop-opacity="1" stop-color="rgb(44.413757%, 33.006287%, 43.829346%)" offset="0.554688"/><stop stop-opacity="1" stop-color="rgb(44.056702%, 32.778931%, 43.708801%)" offset="0.558594"/><stop stop-opacity="1" stop-color="rgb(43.701172%, 32.551575%, 43.589783%)" offset="0.5625"/><stop stop-opacity="1" stop-color="rgb(43.344116%, 32.324219%, 43.469238%)" offset="0.566406"/><stop stop-opacity="1" stop-color="rgb(42.987061%, 32.096863%, 43.348694%)" offset="0.570313"/><stop stop-opacity="1" stop-color="rgb(42.630005%, 31.867981%, 43.228149%)" offset="0.574219"/><stop stop-opacity="1" stop-color="rgb(42.272949%, 31.640625%, 43.109131%)" offset="0.578125"/><stop stop-opacity="1" stop-color="rgb(41.915894%, 31.413269%, 42.988586%)" offset="0.582031"/><stop stop-opacity="1" stop-color="rgb(41.560364%, 31.185913%, 42.869568%)" offset="0.585938"/><stop stop-opacity="1" stop-color="rgb(41.203308%, 30.958557%, 42.749023%)" offset="0.589844"/><stop stop-opacity="1" stop-color="rgb(40.846252%, 30.731201%, 42.628479%)" offset="0.59375"/><stop stop-opacity="1" stop-color="rgb(40.489197%, 30.503845%, 42.507935%)" offset="0.597656"/><stop stop-opacity="1" stop-color="rgb(40.132141%, 30.276489%, 42.388916%)" offset="0.601563"/><stop stop-opacity="1" stop-color="rgb(39.775085%, 30.047607%, 42.268372%)" offset="0.605469"/><stop stop-opacity="1" stop-color="rgb(39.41803%, 29.820251%, 42.147827%)" offset="0.609375"/><stop stop-opacity="1" stop-color="rgb(39.060974%, 29.592896%, 42.027283%)" offset="0.613281"/><stop stop-opacity="1" stop-color="rgb(38.705444%, 29.36554%, 41.908264%)" offset="0.617188"/><stop stop-opacity="1" stop-color="rgb(38.348389%, 29.138184%, 41.78772%)" offset="0.621094"/><stop stop-opacity="1" stop-color="rgb(37.991333%, 28.910828%, 41.668701%)" offset="0.625"/><stop stop-opacity="1" stop-color="rgb(37.634277%, 28.683472%, 41.548157%)" offset="0.628906"/><stop stop-opacity="1" stop-color="rgb(37.277222%, 28.456116%, 41.427612%)" offset="0.632813"/><stop stop-opacity="1" stop-color="rgb(36.920166%, 28.227234%, 41.307068%)" offset="0.636719"/><stop stop-opacity="1" stop-color="rgb(36.56311%, 27.999878%, 41.188049%)" offset="0.640625"/><stop stop-opacity="1" stop-color="rgb(36.206055%, 27.772522%, 41.067505%)" offset="0.644531"/><stop stop-opacity="1" stop-color="rgb(35.850525%, 27.545166%, 40.94696%)" offset="0.648438"/><stop stop-opacity="1" stop-color="rgb(35.493469%, 27.31781%, 40.826416%)" offset="0.652344"/><stop stop-opacity="1" stop-color="rgb(35.136414%, 27.090454%, 40.707397%)" offset="0.65625"/><stop stop-opacity="1" stop-color="rgb(34.779358%, 26.861572%, 40.586853%)" offset="0.660156"/><stop stop-opacity="1" stop-color="rgb(34.422302%, 26.634216%, 40.467834%)" offset="0.664063"/><stop stop-opacity="1" stop-color="rgb(34.065247%, 26.40686%, 40.34729%)" offset="0.667969"/><stop stop-opacity="1" stop-color="rgb(33.709717%, 26.179504%, 40.226746%)" offset="0.671875"/><stop stop-opacity="1" stop-color="rgb(33.352661%, 25.952148%, 40.106201%)" offset="0.675781"/><stop stop-opacity="1" stop-color="rgb(32.995605%, 25.724792%, 39.987183%)" offset="0.679688"/><stop stop-opacity="1" stop-color="rgb(32.63855%, 25.497437%, 39.866638%)" offset="0.683594"/><stop stop-opacity="1" stop-color="rgb(32.281494%, 25.270081%, 39.74762%)" offset="0.6875"/><stop stop-opacity="1" stop-color="rgb(31.924438%, 25.041199%, 39.627075%)" offset="0.691406"/><stop stop-opacity="1" stop-color="rgb(31.567383%, 24.813843%, 39.506531%)" offset="0.695313"/><stop stop-opacity="1" stop-color="rgb(31.210327%, 24.586487%, 39.385986%)" offset="0.699219"/><stop stop-opacity="1" stop-color="rgb(30.854797%, 24.359131%, 39.266968%)" offset="0.703125"/><stop stop-opacity="1" stop-color="rgb(30.497742%, 24.131775%, 39.146423%)" offset="0.707031"/><stop stop-opacity="1" stop-color="rgb(30.140686%, 23.904419%, 39.025879%)" offset="0.710938"/><stop stop-opacity="1" stop-color="rgb(29.78363%, 23.675537%, 38.905334%)" offset="0.714844"/><stop stop-opacity="1" stop-color="rgb(29.426575%, 23.448181%, 38.786316%)" offset="0.71875"/><stop stop-opacity="1" stop-color="rgb(29.069519%, 23.220825%, 38.665771%)" offset="0.722656"/><stop stop-opacity="1" stop-color="rgb(28.712463%, 22.993469%, 38.546753%)" offset="0.726563"/><stop stop-opacity="1" stop-color="rgb(28.355408%, 22.766113%, 38.426208%)" offset="0.730469"/><stop stop-opacity="1" stop-color="rgb(27.999878%, 22.538757%, 38.305664%)" offset="0.734375"/><stop stop-opacity="1" stop-color="rgb(27.642822%, 22.311401%, 38.18512%)" offset="0.738281"/><stop stop-opacity="1" stop-color="rgb(27.285767%, 22.084045%, 38.066101%)" offset="0.742188"/><stop stop-opacity="1" stop-color="rgb(26.928711%, 21.855164%, 37.945557%)" offset="0.746094"/><stop stop-opacity="1" stop-color="rgb(26.571655%, 21.627808%, 37.825012%)" offset="0.75"/><stop stop-opacity="1" stop-color="rgb(26.234436%, 21.412659%, 37.712097%)" offset="0.753906"/><stop stop-opacity="1" stop-color="rgb(25.898743%, 21.199036%, 37.599182%)" offset="0.757813"/><stop stop-opacity="1" stop-color="rgb(25.898743%, 21.199036%, 37.599182%)" offset="0.765625"/><stop stop-opacity="1" stop-color="rgb(25.898743%, 21.199036%, 37.599182%)" offset="0.78125"/><stop stop-opacity="1" stop-color="rgb(25.898743%, 21.199036%, 37.599182%)" offset="0.8125"/><stop stop-opacity="1" stop-color="rgb(25.898743%, 21.199036%, 37.599182%)" offset="0.875"/><stop stop-opacity="1" stop-color="rgb(25.898743%, 21.199036%, 37.599182%)" offset="1"/></linearGradient></defs><g clip-path="url(#431704a552)"><path fill="#ffffff" d="M 0 0.539062 L 310.5 0.539062 L 310.5 680.039062 L 0 680.039062 Z M 0 0.539062 " fill-opacity="1" fill-rule="nonzero"/><path fill="#ffffff" d="M 0 0.539062 L 310.5 0.539062 L 310.5 672.539062 L 0 672.539062 Z M 0 0.539062 " fill-opacity="1" fill-rule="nonzero"/><path fill="#f4f4f4" d="M 0 0.539062 L 310.5 0.539062 L 310.5 672.539062 L 0 672.539062 Z M 0 0.539062 " fill-opacity="1" fill-rule="nonzero"/></g><g clip-path="url(#99367e40a6)"><g clip-path="url(#dd919b3d09)"><g clip-path="url(#02c7c8c799)"><g clip-path="url(#84a1a575df)"><path fill="url(#8577fb1976)" d="M 184.953125 -151.539062 L -224.648438 185.261719 L 125.050781 610.550781 L 534.652344 273.75 Z M 184.953125 -151.539062 " fill-rule="nonzero"/></g></g></g></g><g fill="#595b70" fill-opacity="1"><g transform="translate(101.409367, 319.338282)"><g><path d="M 1.53125 -8.40625 L 1.9375 -8.40625 L 1.9375 -0.375 L 6.859375 -0.375 L 6.859375 0 L 1.53125 0 Z M 1.53125 -8.40625 "/></g></g></g><g fill="#595b70" fill-opacity="1"><g transform="translate(108.393375, 319.338282)"><g><path d="M 3.6875 0.03125 C 3.101562 0.03125 2.578125 -0.0976562 2.109375 -0.359375 C 1.648438 -0.628906 1.285156 -1.003906 1.015625 -1.484375 C 0.753906 -1.960938 0.625 -2.507812 0.625 -3.125 C 0.625 -3.726562 0.753906 -4.269531 1.015625 -4.75 C 1.285156 -5.226562 1.648438 -5.601562 2.109375 -5.875 C 2.578125 -6.144531 3.101562 -6.28125 3.6875 -6.28125 C 4.269531 -6.28125 4.789062 -6.144531 5.25 -5.875 C 5.71875 -5.601562 6.082031 -5.226562 6.34375 -4.75 C 6.613281 -4.269531 6.75 -3.726562 6.75 -3.125 C 6.75 -2.507812 6.613281 -1.960938 6.34375 -1.484375 C 6.082031 -1.003906 5.71875 -0.628906 5.25 -0.359375 C 4.789062 -0.0976562 4.269531 0.03125 3.6875 0.03125 Z M 3.6875 -0.328125 C 4.1875 -0.328125 4.640625 -0.441406 5.046875 -0.671875 C 5.453125 -0.910156 5.769531 -1.238281 6 -1.65625 C 6.226562 -2.082031 6.34375 -2.570312 6.34375 -3.125 C 6.34375 -3.664062 6.226562 -4.144531 6 -4.5625 C 5.769531 -4.988281 5.453125 -5.316406 5.046875 -5.546875 C 4.640625 -5.785156 4.1875 -5.90625 3.6875 -5.90625 C 3.175781 -5.90625 2.71875 -5.785156 2.3125 -5.546875 C 1.914062 -5.316406 1.597656 -4.988281 1.359375 -4.5625 C 1.128906 -4.144531 1.015625 -3.664062 1.015625 -3.125 C 1.015625 -2.570312 1.128906 -2.082031 1.359375 -1.65625 C 1.597656 -1.238281 1.914062 -0.910156 2.3125 -0.671875 C 2.71875 -0.441406 3.175781 -0.328125 3.6875 -0.328125 Z M 3.6875 -0.328125 "/></g></g></g><g fill="#595b70" fill-opacity="1"><g transform="translate(115.76139, 319.338282)"><g><path d="M 6.8125 -6.234375 L 6.8125 -0.59375 C 6.8125 0.40625 6.566406 1.144531 6.078125 1.625 C 5.597656 2.113281 4.863281 2.359375 3.875 2.359375 C 3.300781 2.359375 2.765625 2.269531 2.265625 2.09375 C 1.773438 1.925781 1.378906 1.679688 1.078125 1.359375 L 1.3125 1.0625 C 1.625 1.363281 2 1.59375 2.4375 1.75 C 2.875 1.914062 3.347656 2 3.859375 2 C 4.734375 2 5.378906 1.789062 5.796875 1.375 C 6.210938 0.96875 6.421875 0.328125 6.421875 -0.546875 L 6.421875 -1.875 C 6.191406 -1.363281 5.832031 -0.957031 5.34375 -0.65625 C 4.863281 -0.363281 4.316406 -0.21875 3.703125 -0.21875 C 3.117188 -0.21875 2.59375 -0.347656 2.125 -0.609375 C 1.65625 -0.867188 1.285156 -1.226562 1.015625 -1.6875 C 0.753906 -2.144531 0.625 -2.664062 0.625 -3.25 C 0.625 -3.832031 0.753906 -4.351562 1.015625 -4.8125 C 1.285156 -5.28125 1.65625 -5.640625 2.125 -5.890625 C 2.59375 -6.148438 3.117188 -6.28125 3.703125 -6.28125 C 4.316406 -6.28125 4.863281 -6.128906 5.34375 -5.828125 C 5.832031 -5.535156 6.195312 -5.128906 6.4375 -4.609375 L 6.4375 -6.234375 Z M 3.71875 -0.578125 C 4.226562 -0.578125 4.6875 -0.691406 5.09375 -0.921875 C 5.507812 -1.148438 5.835938 -1.46875 6.078125 -1.875 C 6.316406 -2.28125 6.4375 -2.738281 6.4375 -3.25 C 6.4375 -3.757812 6.316406 -4.21875 6.078125 -4.625 C 5.835938 -5.03125 5.507812 -5.34375 5.09375 -5.5625 C 4.6875 -5.789062 4.226562 -5.90625 3.71875 -5.90625 C 3.207031 -5.90625 2.742188 -5.789062 2.328125 -5.5625 C 1.921875 -5.34375 1.597656 -5.03125 1.359375 -4.625 C 1.128906 -4.21875 1.015625 -3.757812 1.015625 -3.25 C 1.015625 -2.726562 1.128906 -2.265625 1.359375 -1.859375 C 1.597656 -1.460938 1.921875 -1.148438 2.328125 -0.921875 C 2.742188 -0.691406 3.207031 -0.578125 3.71875 -0.578125 Z M 3.71875 -0.578125 "/></g></g></g><g fill="#595b70" fill-opacity="1"><g transform="translate(123.909411, 319.338282)"><g><path d="M 1.328125 -6.234375 L 1.734375 -6.234375 L 1.734375 0 L 1.328125 0 Z M 1.53125 -7.859375 C 1.425781 -7.859375 1.332031 -7.894531 1.25 -7.96875 C 1.164062 -8.050781 1.125 -8.144531 1.125 -8.25 C 1.125 -8.351562 1.160156 -8.441406 1.234375 -8.515625 C 1.316406 -8.597656 1.414062 -8.640625 1.53125 -8.640625 C 1.632812 -8.640625 1.722656 -8.597656 1.796875 -8.515625 C 1.878906 -8.441406 1.921875 -8.351562 1.921875 -8.25 C 1.921875 -8.144531 1.878906 -8.050781 1.796875 -7.96875 C 1.722656 -7.894531 1.632812 -7.859375 1.53125 -7.859375 Z M 1.53125 -7.859375 "/></g></g></g><g fill="#595b70" fill-opacity="1"><g transform="translate(126.969412, 319.338282)"><g><path d="M 4.265625 -6.28125 C 5.046875 -6.28125 5.660156 -6.050781 6.109375 -5.59375 C 6.554688 -5.144531 6.78125 -4.5 6.78125 -3.65625 L 6.78125 0 L 6.390625 0 L 6.390625 -3.640625 C 6.390625 -4.367188 6.203125 -4.925781 5.828125 -5.3125 C 5.453125 -5.707031 4.921875 -5.90625 4.234375 -5.90625 C 3.460938 -5.90625 2.851562 -5.675781 2.40625 -5.21875 C 1.957031 -4.757812 1.734375 -4.140625 1.734375 -3.359375 L 1.734375 0 L 1.328125 0 L 1.328125 -6.234375 L 1.71875 -6.234375 L 1.71875 -4.703125 C 1.914062 -5.191406 2.234375 -5.578125 2.671875 -5.859375 C 3.117188 -6.140625 3.648438 -6.28125 4.265625 -6.28125 Z M 4.265625 -6.28125 "/></g></g></g><g fill="#595b70" fill-opacity="1"><g transform="translate(135.009424, 319.338282)"><g/></g></g><g fill="#595b70" fill-opacity="1"><g transform="translate(138.045427, 319.338282)"><g><path d="M 4.265625 -0.390625 C 4.128906 -0.253906 3.945312 -0.148438 3.71875 -0.078125 C 3.5 -0.00390625 3.269531 0.03125 3.03125 0.03125 C 2.519531 0.03125 2.125 -0.109375 1.84375 -0.390625 C 1.570312 -0.671875 1.4375 -1.0625 1.4375 -1.5625 L 1.4375 -5.875 L 0.265625 -5.875 L 0.265625 -6.234375 L 1.4375 -6.234375 L 1.4375 -7.59375 L 1.84375 -7.59375 L 1.84375 -6.234375 L 3.890625 -6.234375 L 3.890625 -5.875 L 1.84375 -5.875 L 1.84375 -1.625 C 1.84375 -1.195312 1.941406 -0.867188 2.140625 -0.640625 C 2.347656 -0.421875 2.65625 -0.3125 3.0625 -0.3125 C 3.457031 -0.3125 3.789062 -0.4375 4.0625 -0.6875 Z M 4.265625 -0.390625 "/></g></g></g><g fill="#595b70" fill-opacity="1"><g transform="translate(142.74944, 319.338282)"><g><path d="M 3.6875 0.03125 C 3.101562 0.03125 2.578125 -0.0976562 2.109375 -0.359375 C 1.648438 -0.628906 1.285156 -1.003906 1.015625 -1.484375 C 0.753906 -1.960938 0.625 -2.507812 0.625 -3.125 C 0.625 -3.726562 0.753906 -4.269531 1.015625 -4.75 C 1.285156 -5.226562 1.648438 -5.601562 2.109375 -5.875 C 2.578125 -6.144531 3.101562 -6.28125 3.6875 -6.28125 C 4.269531 -6.28125 4.789062 -6.144531 5.25 -5.875 C 5.71875 -5.601562 6.082031 -5.226562 6.34375 -4.75 C 6.613281 -4.269531 6.75 -3.726562 6.75 -3.125 C 6.75 -2.507812 6.613281 -1.960938 6.34375 -1.484375 C 6.082031 -1.003906 5.71875 -0.628906 5.25 -0.359375 C 4.789062 -0.0976562 4.269531 0.03125 3.6875 0.03125 Z M 3.6875 -0.328125 C 4.1875 -0.328125 4.640625 -0.441406 5.046875 -0.671875 C 5.453125 -0.910156 5.769531 -1.238281 6 -1.65625 C 6.226562 -2.082031 6.34375 -2.570312 6.34375 -3.125 C 6.34375 -3.664062 6.226562 -4.144531 6 -4.5625 C 5.769531 -4.988281 5.453125 -5.316406 5.046875 -5.546875 C 4.640625 -5.785156 4.1875 -5.90625 3.6875 -5.90625 C 3.175781 -5.90625 2.71875 -5.785156 2.3125 -5.546875 C 1.914062 -5.316406 1.597656 -4.988281 1.359375 -4.5625 C 1.128906 -4.144531 1.015625 -3.664062 1.015625 -3.125 C 1.015625 -2.570312 1.128906 -2.082031 1.359375 -1.65625 C 1.597656 -1.238281 1.914062 -0.910156 2.3125 -0.671875 C 2.71875 -0.441406 3.175781 -0.328125 3.6875 -0.328125 Z M 3.6875 -0.328125 "/></g></g></g><g fill="#595b70" fill-opacity="1"><g transform="translate(150.117455, 319.338282)"><g/></g></g><g fill="#595b70" fill-opacity="1"><g transform="translate(153.153458, 319.338282)"><g><path d="M 3.71875 0.03125 C 3.125 0.03125 2.59375 -0.0976562 2.125 -0.359375 C 1.65625 -0.628906 1.285156 -1.003906 1.015625 -1.484375 C 0.753906 -1.960938 0.625 -2.507812 0.625 -3.125 C 0.625 -3.726562 0.753906 -4.269531 1.015625 -4.75 C 1.285156 -5.226562 1.65625 -5.601562 2.125 -5.875 C 2.59375 -6.144531 3.125 -6.28125 3.71875 -6.28125 C 4.1875 -6.28125 4.625 -6.1875 5.03125 -6 C 5.4375 -5.820312 5.769531 -5.554688 6.03125 -5.203125 L 5.71875 -4.953125 C 5.5 -5.265625 5.210938 -5.5 4.859375 -5.65625 C 4.515625 -5.820312 4.132812 -5.90625 3.71875 -5.90625 C 3.207031 -5.90625 2.742188 -5.785156 2.328125 -5.546875 C 1.921875 -5.316406 1.597656 -4.988281 1.359375 -4.5625 C 1.128906 -4.144531 1.015625 -3.664062 1.015625 -3.125 C 1.015625 -2.570312 1.128906 -2.082031 1.359375 -1.65625 C 1.597656 -1.238281 1.921875 -0.910156 2.328125 -0.671875 C 2.742188 -0.441406 3.207031 -0.328125 3.71875 -0.328125 C 4.132812 -0.328125 4.515625 -0.40625 4.859375 -0.5625 C 5.210938 -0.71875 5.5 -0.953125 5.71875 -1.265625 L 6.03125 -1.03125 C 5.769531 -0.675781 5.4375 -0.410156 5.03125 -0.234375 C 4.625 -0.0546875 4.1875 0.03125 3.71875 0.03125 Z M 3.71875 0.03125 "/></g></g></g><g fill="#595b70" fill-opacity="1"><g transform="translate(159.741466, 319.338282)"><g><path d="M 3.6875 0.03125 C 3.101562 0.03125 2.578125 -0.0976562 2.109375 -0.359375 C 1.648438 -0.628906 1.285156 -1.003906 1.015625 -1.484375 C 0.753906 -1.960938 0.625 -2.507812 0.625 -3.125 C 0.625 -3.726562 0.753906 -4.269531 1.015625 -4.75 C 1.285156 -5.226562 1.648438 -5.601562 2.109375 -5.875 C 2.578125 -6.144531 3.101562 -6.28125 3.6875 -6.28125 C 4.269531 -6.28125 4.789062 -6.144531 5.25 -5.875 C 5.71875 -5.601562 6.082031 -5.226562 6.34375 -4.75 C 6.613281 -4.269531 6.75 -3.726562 6.75 -3.125 C 6.75 -2.507812 6.613281 -1.960938 6.34375 -1.484375 C 6.082031 -1.003906 5.71875 -0.628906 5.25 -0.359375 C 4.789062 -0.0976562 4.269531 0.03125 3.6875 0.03125 Z M 3.6875 -0.328125 C 4.1875 -0.328125 4.640625 -0.441406 5.046875 -0.671875 C 5.453125 -0.910156 5.769531 -1.238281 6 -1.65625 C 6.226562 -2.082031 6.34375 -2.570312 6.34375 -3.125 C 6.34375 -3.664062 6.226562 -4.144531 6 -4.5625 C 5.769531 -4.988281 5.453125 -5.316406 5.046875 -5.546875 C 4.640625 -5.785156 4.1875 -5.90625 3.6875 -5.90625 C 3.175781 -5.90625 2.71875 -5.785156 2.3125 -5.546875 C 1.914062 -5.316406 1.597656 -4.988281 1.359375 -4.5625 C 1.128906 -4.144531 1.015625 -3.664062 1.015625 -3.125 C 1.015625 -2.570312 1.128906 -2.082031 1.359375 -1.65625 C 1.597656 -1.238281 1.914062 -0.910156 2.3125 -0.671875 C 2.71875 -0.441406 3.175781 -0.328125 3.6875 -0.328125 Z M 3.6875 -0.328125 "/></g></g></g><g fill="#595b70" fill-opacity="1"><g transform="translate(167.109481, 319.338282)"><g><path d="M 4.265625 -6.28125 C 5.046875 -6.28125 5.660156 -6.050781 6.109375 -5.59375 C 6.554688 -5.144531 6.78125 -4.5 6.78125 -3.65625 L 6.78125 0 L 6.390625 0 L 6.390625 -3.640625 C 6.390625 -4.367188 6.203125 -4.925781 5.828125 -5.3125 C 5.453125 -5.707031 4.921875 -5.90625 4.234375 -5.90625 C 3.460938 -5.90625 2.851562 -5.675781 2.40625 -5.21875 C 1.957031 -4.757812 1.734375 -4.140625 1.734375 -3.359375 L 1.734375 0 L 1.328125 0 L 1.328125 -6.234375 L 1.71875 -6.234375 L 1.71875 -4.703125 C 1.914062 -5.191406 2.234375 -5.578125 2.671875 -5.859375 C 3.117188 -6.140625 3.648438 -6.28125 4.265625 -6.28125 Z M 4.265625 -6.28125 "/></g></g></g><g fill="#595b70" fill-opacity="1"><g transform="translate(175.149493, 319.338282)"><g><path d="M 4.265625 -0.390625 C 4.128906 -0.253906 3.945312 -0.148438 3.71875 -0.078125 C 3.5 -0.00390625 3.269531 0.03125 3.03125 0.03125 C 2.519531 0.03125 2.125 -0.109375 1.84375 -0.390625 C 1.570312 -0.671875 1.4375 -1.0625 1.4375 -1.5625 L 1.4375 -5.875 L 0.265625 -5.875 L 0.265625 -6.234375 L 1.4375 -6.234375 L 1.4375 -7.59375 L 1.84375 -7.59375 L 1.84375 -6.234375 L 3.890625 -6.234375 L 3.890625 -5.875 L 1.84375 -5.875 L 1.84375 -1.625 C 1.84375 -1.195312 1.941406 -0.867188 2.140625 -0.640625 C 2.347656 -0.421875 2.65625 -0.3125 3.0625 -0.3125 C 3.457031 -0.3125 3.789062 -0.4375 4.0625 -0.6875 Z M 4.265625 -0.390625 "/></g></g></g><g fill="#595b70" fill-opacity="1"><g transform="translate(179.853506, 319.338282)"><g><path d="M 1.328125 -6.234375 L 1.734375 -6.234375 L 1.734375 0 L 1.328125 0 Z M 1.53125 -7.859375 C 1.425781 -7.859375 1.332031 -7.894531 1.25 -7.96875 C 1.164062 -8.050781 1.125 -8.144531 1.125 -8.25 C 1.125 -8.351562 1.160156 -8.441406 1.234375 -8.515625 C 1.316406 -8.597656 1.414062 -8.640625 1.53125 -8.640625 C 1.632812 -8.640625 1.722656 -8.597656 1.796875 -8.515625 C 1.878906 -8.441406 1.921875 -8.351562 1.921875 -8.25 C 1.921875 -8.144531 1.878906 -8.050781 1.796875 -7.96875 C 1.722656 -7.894531 1.632812 -7.859375 1.53125 -7.859375 Z M 1.53125 -7.859375 "/></g></g></g><g fill="#595b70" fill-opacity="1"><g transform="translate(182.913508, 319.338282)"><g><path d="M 4.265625 -6.28125 C 5.046875 -6.28125 5.660156 -6.050781 6.109375 -5.59375 C 6.554688 -5.144531 6.78125 -4.5 6.78125 -3.65625 L 6.78125 0 L 6.390625 0 L 6.390625 -3.640625 C 6.390625 -4.367188 6.203125 -4.925781 5.828125 -5.3125 C 5.453125 -5.707031 4.921875 -5.90625 4.234375 -5.90625 C 3.460938 -5.90625 2.851562 -5.675781 2.40625 -5.21875 C 1.957031 -4.757812 1.734375 -4.140625 1.734375 -3.359375 L 1.734375 0 L 1.328125 0 L 1.328125 -6.234375 L 1.71875 -6.234375 L 1.71875 -4.703125 C 1.914062 -5.191406 2.234375 -5.578125 2.671875 -5.859375 C 3.117188 -6.140625 3.648438 -6.28125 4.265625 -6.28125 Z M 4.265625 -6.28125 "/></g></g></g><g fill="#595b70" fill-opacity="1"><g transform="translate(190.953519, 319.338282)"><g><path d="M 6.65625 -6.234375 L 6.65625 0 L 6.28125 0 L 6.28125 -1.515625 C 6.082031 -1.023438 5.769531 -0.644531 5.34375 -0.375 C 4.925781 -0.101562 4.425781 0.03125 3.84375 0.03125 C 3.03125 0.03125 2.394531 -0.191406 1.9375 -0.640625 C 1.488281 -1.085938 1.265625 -1.726562 1.265625 -2.5625 L 1.265625 -6.234375 L 1.65625 -6.234375 L 1.65625 -2.59375 C 1.65625 -1.851562 1.84375 -1.289062 2.21875 -0.90625 C 2.601562 -0.519531 3.148438 -0.328125 3.859375 -0.328125 C 4.597656 -0.328125 5.179688 -0.554688 5.609375 -1.015625 C 6.046875 -1.472656 6.265625 -2.09375 6.265625 -2.875 L 6.265625 -6.234375 Z M 6.65625 -6.234375 "/></g></g></g><g fill="#595b70" fill-opacity="1"><g transform="translate(198.945534, 319.338282)"><g><path d="M 6.46875 -3.0625 L 1.015625 -3.0625 C 1.015625 -2.53125 1.132812 -2.054688 1.375 -1.640625 C 1.613281 -1.222656 1.941406 -0.898438 2.359375 -0.671875 C 2.785156 -0.441406 3.257812 -0.328125 3.78125 -0.328125 C 4.207031 -0.328125 4.597656 -0.40625 4.953125 -0.5625 C 5.316406 -0.71875 5.613281 -0.945312 5.84375 -1.25 L 6.09375 -0.984375 C 5.8125 -0.648438 5.46875 -0.394531 5.0625 -0.21875 C 4.664062 -0.0507812 4.238281 0.03125 3.78125 0.03125 C 3.175781 0.03125 2.632812 -0.0976562 2.15625 -0.359375 C 1.675781 -0.628906 1.300781 -1.003906 1.03125 -1.484375 C 0.757812 -1.960938 0.625 -2.507812 0.625 -3.125 C 0.625 -3.726562 0.75 -4.269531 1 -4.75 C 1.25 -5.226562 1.597656 -5.601562 2.046875 -5.875 C 2.492188 -6.144531 2.992188 -6.28125 3.546875 -6.28125 C 4.097656 -6.28125 4.59375 -6.144531 5.03125 -5.875 C 5.476562 -5.613281 5.828125 -5.242188 6.078125 -4.765625 C 6.335938 -4.296875 6.46875 -3.765625 6.46875 -3.171875 Z M 3.546875 -5.921875 C 3.085938 -5.921875 2.671875 -5.8125 2.296875 -5.59375 C 1.921875 -5.375 1.617188 -5.070312 1.390625 -4.6875 C 1.171875 -4.300781 1.046875 -3.867188 1.015625 -3.390625 L 6.09375 -3.390625 C 6.0625 -3.867188 5.929688 -4.300781 5.703125 -4.6875 C 5.472656 -5.070312 5.171875 -5.375 4.796875 -5.59375 C 4.429688 -5.8125 4.015625 -5.921875 3.546875 -5.921875 Z M 3.546875 -5.921875 "/></g></g></g><g fill="#595b70" fill-opacity="1"><g transform="translate(206.034359, 319.338282)"><g/></g></g><g fill="#595b70" fill-opacity="1"><g transform="translate(31.049997, 357.627286)"><g><path d="M 7.21875 -0.375 L 7.21875 0 L 1.53125 0 L 1.53125 -8.40625 L 7.046875 -8.40625 L 7.046875 -8.03125 L 1.9375 -8.03125 L 1.9375 -4.453125 L 6.5 -4.453125 L 6.5 -4.078125 L 1.9375 -4.078125 L 1.9375 -0.375 Z M 7.21875 -0.375 "/></g></g></g><g fill="#595b70" fill-opacity="1"><g transform="translate(39.066011, 357.627286)"><g><path d="M 9.078125 -6.28125 C 9.835938 -6.28125 10.4375 -6.054688 10.875 -5.609375 C 11.3125 -5.160156 11.53125 -4.507812 11.53125 -3.65625 L 11.53125 0 L 11.140625 0 L 11.140625 -3.640625 C 11.140625 -4.367188 10.957031 -4.925781 10.59375 -5.3125 C 10.238281 -5.707031 9.726562 -5.90625 9.0625 -5.90625 C 8.3125 -5.90625 7.71875 -5.671875 7.28125 -5.203125 C 6.84375 -4.742188 6.625 -4.128906 6.625 -3.359375 L 6.625 0 L 6.234375 0 L 6.234375 -3.640625 C 6.234375 -4.367188 6.050781 -4.925781 5.6875 -5.3125 C 5.320312 -5.707031 4.8125 -5.90625 4.15625 -5.90625 C 3.40625 -5.90625 2.8125 -5.675781 2.375 -5.21875 C 1.945312 -4.757812 1.734375 -4.140625 1.734375 -3.359375 L 1.734375 0 L 1.328125 0 L 1.328125 -6.234375 L 1.71875 -6.234375 L 1.71875 -4.734375 C 1.90625 -5.210938 2.210938 -5.585938 2.640625 -5.859375 C 3.066406 -6.140625 3.582031 -6.28125 4.1875 -6.28125 C 4.789062 -6.28125 5.296875 -6.132812 5.703125 -5.84375 C 6.109375 -5.550781 6.378906 -5.128906 6.515625 -4.578125 C 6.703125 -5.097656 7.019531 -5.507812 7.46875 -5.8125 C 7.914062 -6.125 8.453125 -6.28125 9.078125 -6.28125 Z M 9.078125 -6.28125 "/></g></g></g><g fill="#595b70" fill-opacity="1"><g transform="translate(51.858032, 357.627286)"><g><path d="M 3.375 -6.28125 C 4.113281 -6.28125 4.679688 -6.085938 5.078125 -5.703125 C 5.472656 -5.316406 5.671875 -4.757812 5.671875 -4.03125 L 5.671875 0 L 5.296875 0 L 5.296875 -1.25 C 5.085938 -0.84375 4.785156 -0.523438 4.390625 -0.296875 C 3.992188 -0.078125 3.519531 0.03125 2.96875 0.03125 C 2.28125 0.03125 1.738281 -0.125 1.34375 -0.4375 C 0.945312 -0.757812 0.75 -1.1875 0.75 -1.71875 C 0.75 -2.21875 0.925781 -2.625 1.28125 -2.9375 C 1.644531 -3.257812 2.222656 -3.421875 3.015625 -3.421875 L 5.28125 -3.421875 L 5.28125 -4.03125 C 5.28125 -4.644531 5.117188 -5.113281 4.796875 -5.4375 C 4.472656 -5.757812 3.992188 -5.921875 3.359375 -5.921875 C 2.921875 -5.921875 2.507812 -5.84375 2.125 -5.6875 C 1.738281 -5.53125 1.410156 -5.328125 1.140625 -5.078125 L 0.921875 -5.359375 C 1.222656 -5.648438 1.585938 -5.875 2.015625 -6.03125 C 2.441406 -6.195312 2.894531 -6.28125 3.375 -6.28125 Z M 3 -0.296875 C 4.125 -0.296875 4.882812 -0.796875 5.28125 -1.796875 L 5.28125 -3.09375 L 3.015625 -3.09375 C 2.367188 -3.09375 1.894531 -2.96875 1.59375 -2.71875 C 1.289062 -2.476562 1.140625 -2.148438 1.140625 -1.734375 C 1.140625 -1.285156 1.304688 -0.929688 1.640625 -0.671875 C 1.972656 -0.421875 2.425781 -0.296875 3 -0.296875 Z M 3 -0.296875 "/></g></g></g><g fill="#595b70" fill-opacity="1"><g transform="translate(58.794044, 357.627286)"><g><path d="M 1.328125 -6.234375 L 1.734375 -6.234375 L 1.734375 0 L 1.328125 0 Z M 1.53125 -7.859375 C 1.425781 -7.859375 1.332031 -7.894531 1.25 -7.96875 C 1.164062 -8.050781 1.125 -8.144531 1.125 -8.25 C 1.125 -8.351562 1.160156 -8.441406 1.234375 -8.515625 C 1.316406 -8.597656 1.414062 -8.640625 1.53125 -8.640625 C 1.632812 -8.640625 1.722656 -8.597656 1.796875 -8.515625 C 1.878906 -8.441406 1.921875 -8.351562 1.921875 -8.25 C 1.921875 -8.144531 1.878906 -8.050781 1.796875 -7.96875 C 1.722656 -7.894531 1.632812 -7.859375 1.53125 -7.859375 Z M 1.53125 -7.859375 "/></g></g></g><g fill="#595b70" fill-opacity="1"><g transform="translate(61.854045, 357.627286)"><g><path d="M 1.328125 -8.90625 L 1.734375 -8.90625 L 1.734375 0 L 1.328125 0 Z M 1.328125 -8.90625 "/></g></g></g></svg>