<svg xmlns="http://www.w3.org/2000/svg" xmlns:xlink="http://www.w3.org/1999/xlink" zoomAndPan="magnify" preserveAspectRatio="xMidYMid meet" version="1.0" viewBox="78.96 69.1 161.33 57.41"><defs><g/><clipPath id="1625de0fa0"><path d="M 136.851562 85.402344 L 214.496094 85.402344 L 214.496094 110.210938 L 136.851562 110.210938 Z M 136.851562 85.402344 " clip-rule="nonzero"/></clipPath><clipPath id="8e56672f9d"><path d="M 149.230469 85.402344 L 202.113281 85.402344 C 208.949219 85.402344 214.492188 90.957031 214.492188 97.808594 C 214.492188 104.660156 208.949219 110.210938 202.113281 110.210938 L 149.230469 110.210938 C 142.394531 110.210938 136.851562 104.660156 136.851562 97.808594 C 136.851562 90.957031 142.394531 85.402344 149.230469 85.402344 " clip-rule="nonzero"/></clipPath></defs><g clip-path="url(#1625de0fa0)"><g clip-path="url(#8e56672f9d)"><path stroke-linecap="butt" transform="matrix(0.458679, 0, 0, 0.459576, 136.849643, 85.40222)" fill="none" stroke-linejoin="miter" d="M 26.992335 0.000268959 L 142.285982 0.000268959 C 157.189504 0.000268959 169.274131 12.086827 169.274131 26.995282 C 169.274131 41.903737 157.189504 53.981796 142.285982 53.981796 L 26.992335 53.981796 C 12.088813 53.981796 0.00418583 41.903737 0.00418583 26.995282 C 0.00418583 12.086827 12.088813 0.000268959 26.992335 0.000268959 " stroke="#feae9f" stroke-width="32.605961" stroke-opacity="1" stroke-miterlimit="4"/></g></g><g fill="#fefefe" fill-opacity="1"><g transform="translate(75.663249, 109.484275)"><g><path d="M 7.890625 0 L 3.296875 0 L 3.296875 -25.359375 L 9.859375 -25.359375 L 16.28125 -6.71875 L 16.640625 -6.71875 L 23.015625 -25.359375 L 29.421875 -25.359375 L 29.421875 0 L 24.671875 0 L 24.671875 -16.765625 L 24.234375 -16.828125 L 18.375 0 L 14.1875 0 L 8.328125 -16.828125 L 7.890625 -16.765625 Z M 7.890625 0 "/></g></g></g><g fill="#fefefe" fill-opacity="1"><g transform="translate(107.412304, 109.484275)"><g><path d="M 13.828125 0.359375 C 11.503906 0.359375 9.453125 -0.113281 7.671875 -1.0625 C 5.898438 -2.007812 4.507812 -3.457031 3.5 -5.40625 C 2.5 -7.351562 2 -9.78125 2 -12.6875 C 2 -15.582031 2.5 -18.003906 3.5 -19.953125 C 4.507812 -21.910156 5.898438 -23.363281 7.671875 -24.3125 C 9.453125 -25.257812 11.503906 -25.734375 13.828125 -25.734375 C 16.148438 -25.734375 18.195312 -25.257812 19.96875 -24.3125 C 21.738281 -23.375 23.125 -21.925781 24.125 -19.96875 C 25.125 -18.007812 25.625 -15.582031 25.625 -12.6875 C 25.625 -9.78125 25.125 -7.347656 24.125 -5.390625 C 23.125 -3.441406 21.738281 -1.992188 19.96875 -1.046875 C 18.195312 -0.109375 16.148438 0.359375 13.828125 0.359375 Z M 13.828125 -3.984375 C 15.972656 -3.984375 17.613281 -4.675781 18.75 -6.0625 C 19.882812 -7.445312 20.453125 -9.65625 20.453125 -12.6875 C 20.453125 -15.71875 19.882812 -17.925781 18.75 -19.3125 C 17.613281 -20.695312 15.972656 -21.390625 13.828125 -21.390625 C 11.660156 -21.390625 10.007812 -20.695312 8.875 -19.3125 C 7.738281 -17.925781 7.171875 -15.71875 7.171875 -12.6875 C 7.171875 -9.65625 7.738281 -7.445312 8.875 -6.0625 C 10.007812 -4.675781 11.660156 -3.984375 13.828125 -3.984375 Z M 13.828125 -3.984375 "/></g></g></g><g fill="#fefefe" fill-opacity="1"><g transform="translate(215.184037, 109.966879)"><g><path d="M 12.421875 -25.359375 C 16.535156 -25.359375 19.675781 -24.296875 21.84375 -22.171875 C 24.019531 -20.046875 25.109375 -16.882812 25.109375 -12.6875 C 25.109375 -8.5 24.019531 -5.335938 21.84375 -3.203125 C 19.675781 -1.066406 16.535156 0 12.421875 0 L 3.296875 0 L 3.296875 -25.359375 Z M 12.125 -4.21875 C 14.738281 -4.21875 16.691406 -4.882812 17.984375 -6.21875 C 19.285156 -7.550781 19.9375 -9.707031 19.9375 -12.6875 C 19.9375 -15.65625 19.285156 -17.804688 17.984375 -19.140625 C 16.691406 -20.484375 14.738281 -21.15625 12.125 -21.15625 L 8.3125 -21.15625 L 8.3125 -4.21875 Z M 12.125 -4.21875 "/></g></g></g></svg>